<?xml version="1.0" encoding="utf-8"?>
<!-- Generator: Adobe Illustrator 16.0.0, SVG Export Plug-In . SVG Version: 6.00 Build 0)  -->
<!DOCTYPE svg PUBLIC "-//W3C//DTD SVG 1.1//EN" "http://www.w3.org/Graphics/SVG/1.1/DTD/svg11.dtd">
<svg version="1.1" id="Layer_1" xmlns="http://www.w3.org/2000/svg" xmlns:xlink="http://www.w3.org/1999/xlink" x="0px" y="0px"
	 width="841.89px" height="595.28px" viewBox="0 0 841.89 595.28" enable-background="new 0 0 841.89 595.28" xml:space="preserve">
<g display="none">
	<path display="inline" d="M296.13,152.077c0.216,0.048,0.456,0.168,0.456,0.432c0,0.312-0.6,1.104-1.224,1.944
		c-0.312,0.432-0.816,1.128-1.416,1.128c-0.576,0-0.816-0.336-0.816-0.864c0-1.056,1.704-3.672,2.28-4.681
		c-0.576-0.36-1.08-0.792-1.08-1.536c0-1.392,2.832-2.04,3.84-2.352l3.816-5.041c-4.201,0.072-7.537,1.608-8.257,1.608
		c-0.144,0-0.384-0.024-0.384-0.24c0-0.576,1.392-2.424,1.776-2.952c0.432-0.6,1.152-0.792,1.824-0.984
		c2.088-0.6,4.296-0.84,6.457-0.84c5.953,0,7.609,1.92,7.609,4.896c0,5.112-6.217,8.713-13.897,7.849L296.13,152.077z
		 M300.331,145.836c0.888,0,1.872-0.336,1.872,0.12c0,0.48-2.04,0.6-2.424,0.864l-0.528,0.792c0.888,0.24,1.704,0.288,2.472,0.24
		c4.705-0.264,7.801-3.696,7.537-5.208c-0.264-1.464-4.776-1.752-5.88-1.752c-0.024,0.648-0.168,0.96-0.528,1.464L300.331,145.836z"
		/>
	<path display="inline" d="M316.602,151.309c-1.08,1.32-3.192,3.48-5.017,3.48c-1.416,0-2.064-1.632-2.064-2.856
		c0-2.928,3-5.785,4.44-5.785c0.408,0,1.056,0.144,1.056,0.672c0,1.2-2.376,3.336-3.384,4.033c-0.192,0.984,0.168,1.512,1.272,1.512
		c1.272,0,2.52-1.272,3.48-1.968L316.602,151.309z M314.298,144.636c0-0.984,1.152-1.848,2.088-1.848
		c0.432,0,0.792,0.312,0.792,0.744c0,0.96-0.888,2.136-1.92,2.136C314.682,145.668,314.298,145.212,314.298,144.636z"/>
	<path display="inline" d="M319.146,149.917c-0.528,0.384-0.96,0.744-0.96,1.416c0,0.552,0.576,1.296,1.824,1.296
		c1.824,0,3.912-1.68,5.304-2.76l0.288,0.936c-1.464,1.561-4.152,3.937-6.433,3.937c-1.848,0-2.736-1.728-2.736-3.504
		c0-2.016,0.72-2.76,2.28-3.936c1.08-0.816,3.384-2.112,4.729-2.112c0.744,0,1.08,0.384,1.08,1.104c0,1.32-1.896,3.168-2.544,3.168
		c-0.552,0-0.792-0.6-0.816-1.056L319.146,149.917z"/>
	<path display="inline" d="M334.915,150.829c-1.08,1.368-2.136,1.944-3.889,1.944c-1.008,1.032-2.184,1.8-3.696,1.8
		c-1.248,0-2.4-1.248-2.496-3.432c-0.048-1.8,0.84-3,2.184-4.033c1.296-1.056,3.024-1.704,4.489-1.776
		c0.528-0.024,1.32,0.216,1.32,0.864c0,0.36-0.288,0.504-0.552,0.648c0.72,0.192,0.864,0.696,0.864,1.416
		c0,1.056-0.48,1.896-0.936,2.832c1.056,0.192,1.728-0.72,2.472-1.272L334.915,150.829z M327.594,149.7
		c-0.528,0.528-0.984,1.464-0.984,2.208c0,0.696,0.456,0.912,1.056,0.912c0.792,0,1.296-0.456,1.848-0.96
		c-0.168-0.384-0.288-0.696-0.288-1.104c0-1.248,1.128-2.76,1.032-2.808C329.442,148.428,328.314,149.004,327.594,149.7z"/>
	<path display="inline" d="M350.997,146.12c0,2.297-0.738,4.289-2.215,5.977c-1.305,1.508-3.137,2.301-5.496,2.379
		c-0.453,0.016-1.699,0.023-3.738,0.023c-0.383,0-0.959-0.012-1.729-0.035s-1.346-0.035-1.729-0.035c-0.227,0-0.34-0.09-0.34-0.27
		c0-0.859,0.033-2.15,0.1-3.873s0.1-3.014,0.1-3.873c0-0.898-0.033-2.244-0.1-4.037s-0.1-3.135-0.1-4.025
		c0-0.164,0.113-0.262,0.34-0.293c0.555-0.063,1.465-0.094,2.73-0.094c2.406,0,3.965,0.035,4.676,0.105
		c1.852,0.188,3.301,0.656,4.348,1.406c0.984,0.703,1.762,1.688,2.332,2.953C350.723,143.624,350.997,144.854,350.997,146.12z
		 M346.508,146.12c0-1.32-0.395-2.398-1.184-3.234c-0.797-0.867-1.852-1.301-3.164-1.301c-1.203,0-1.805,0.16-1.805,0.48
		c0,0.461-0.008,1.154-0.023,2.08s-0.023,1.619-0.023,2.08c0,0.453,0.008,1.135,0.023,2.045s0.023,1.596,0.023,2.057
		c0,0.336,0.625,0.504,1.875,0.504c1.352,0,2.414-0.449,3.188-1.348C346.145,148.632,346.508,147.511,346.508,146.12z"/>
	<path display="inline" d="M360.5,147.128c0,0.305-0.168,0.457-0.504,0.457c-0.148,0-0.365-0.01-0.65-0.029
		s-0.498-0.029-0.639-0.029c-0.648,0-1.09,0.102-1.324,0.305s-0.352,0.613-0.352,1.23c0,0.336,0.006,0.846,0.018,1.529
		s0.018,1.193,0.018,1.529c0,0.227,0.016,0.564,0.047,1.014s0.047,0.783,0.047,1.002c0,0.188-0.129,0.293-0.387,0.316
		c-0.375,0.031-0.949,0.047-1.723,0.047c-0.742,0-1.336-0.023-1.781-0.07c-0.258-0.031-0.387-0.16-0.387-0.387
		c0-0.625,0.004-1.561,0.012-2.807s0.012-2.182,0.012-2.807c0-1.836-0.168-3.348-0.504-4.535c-0.016-0.07-0.023-0.129-0.023-0.176
		c0-0.117,0.059-0.195,0.176-0.234c0.43-0.047,1.059-0.133,1.887-0.258c1.234-0.242,1.871-0.363,1.91-0.363
		c0.141,0,0.23,0.246,0.27,0.738s0.109,0.738,0.211,0.738c-0.109,0,0.211-0.205,0.961-0.615s1.473-0.615,2.168-0.615
		c0.438,0,0.656,0.094,0.656,0.281c0,0.227-0.023,0.547-0.07,0.961c-0.047,0.445-0.074,0.766-0.082,0.961
		c0,0.227,0.004,0.527,0.012,0.902C360.493,146.675,360.5,146.979,360.5,147.128z"/>
	<path display="inline" d="M366.208,149.05c0,0.57,0.012,1.42,0.035,2.549s0.035,1.975,0.035,2.537c0,0.164-0.098,0.262-0.293,0.293
		c-0.266,0.047-0.863,0.07-1.793,0.07c-0.938,0-1.539-0.023-1.805-0.07c-0.172-0.031-0.277-0.082-0.316-0.152
		c-0.016-0.031-0.023-0.148-0.023-0.352c0-0.539,0.012-1.35,0.035-2.432s0.035-1.896,0.035-2.443c0-2.219-0.086-3.984-0.258-5.297
		c-0.016-0.125-0.023-0.207-0.023-0.246c0-0.156,0.105-0.234,0.316-0.234c0.219,0,0.553,0.023,1.002,0.07s0.787,0.07,1.014,0.07
		s0.566-0.02,1.02-0.059s0.793-0.059,1.02-0.059c0.188,0,0.281,0.078,0.281,0.234c0,0.031-0.008,0.105-0.023,0.223
		C366.293,145.276,366.208,147.042,366.208,149.05z M366.512,140.343c0,1.359-0.766,2.039-2.297,2.039
		c-0.656,0-1.199-0.172-1.629-0.516c-0.469-0.375-0.703-0.883-0.703-1.523c0-0.609,0.242-1.109,0.727-1.5
		c0.445-0.359,0.98-0.539,1.605-0.539c0.609,0,1.137,0.184,1.582,0.551C366.274,139.245,366.512,139.741,366.512,140.343z"/>
	<path display="inline" d="M379.743,146.296c0,1.336-0.043,2.125-0.129,2.367c-0.18,0.555-0.719,1.496-1.617,2.824
		c-0.781,1.141-1.449,2.031-2.004,2.672c-0.203,0.242-0.816,0.363-1.84,0.363c-0.891,0-1.469-0.031-1.734-0.094
		c-0.164-0.039-0.301-0.117-0.41-0.234c-0.469-0.508-1.137-1.391-2.004-2.648c-0.93-1.352-1.484-2.277-1.664-2.777
		c-0.195-0.539-0.293-1.348-0.293-2.426c0-0.305,0.004-0.764,0.012-1.377s0.012-1.076,0.012-1.389c0-0.203,0.137-0.305,0.41-0.305
		c0.398,0,0.998,0.012,1.799,0.035s1.4,0.035,1.799,0.035c0.18,0,0.27,0.121,0.27,0.363c0,0.219-0.016,0.549-0.047,0.99
		s-0.047,0.775-0.047,1.002c0,0.813,0.023,1.477,0.07,1.992c0.023,0.266,0.25,0.766,0.68,1.5c0.445,0.773,0.77,1.16,0.973,1.16
		c0.195,0,0.508-0.379,0.938-1.137c0.414-0.711,0.637-1.195,0.668-1.453c0.063-0.555,0.094-1.227,0.094-2.016
		c0-0.227-0.023-0.568-0.07-1.025s-0.07-0.795-0.07-1.014c0-0.242,0.082-0.363,0.246-0.363c0.188,0,0.467,0.004,0.838,0.012
		s0.65,0.012,0.838,0.012s0.471-0.016,0.85-0.047s0.662-0.047,0.85-0.047c0.195,0,0.324,0.102,0.387,0.305
		C379.676,144.022,379.743,144.929,379.743,146.296z"/>
	<path display="inline" d="M392.071,148.065c0,0.789-0.254,1.238-0.762,1.348c-0.086,0.016-0.895,0.102-2.426,0.258
		c-0.922,0.102-2.297,0.223-4.125,0.363c0.109,0.508,0.441,0.895,0.996,1.16c0.453,0.219,0.969,0.328,1.547,0.328
		c0.695,0,1.395-0.188,2.098-0.563c0.297-0.188,0.594-0.375,0.891-0.563c0.164,0.078,0.439,0.477,0.826,1.195s0.58,1.176,0.58,1.371
		c0,0.055-0.059,0.145-0.176,0.27c-0.953,1.023-2.434,1.535-4.441,1.535c-1.859,0-3.359-0.543-4.5-1.629
		c-1.172-1.102-1.758-2.574-1.758-4.418c0-1.797,0.523-3.27,1.57-4.418c1.078-1.188,2.508-1.781,4.289-1.781
		c1.5,0,2.773,0.547,3.82,1.641S392.071,146.558,392.071,148.065z M387.969,147.351c0-0.484-0.172-0.91-0.516-1.277
		s-0.754-0.551-1.23-0.551c-0.492,0-0.898,0.207-1.219,0.621c-0.297,0.383-0.445,0.832-0.445,1.348c0,0.211,0.109,0.316,0.328,0.316
		c0.578,0,1.477-0.09,2.695-0.27C387.84,147.499,387.969,147.437,387.969,147.351z"/>
</g>
<g>
	<path d="M296.13,152.077c0.216,0.048,0.456,0.168,0.456,0.432c0,0.312-0.6,1.104-1.224,1.944c-0.312,0.432-0.816,1.128-1.416,1.128
		c-0.576,0-0.816-0.336-0.816-0.864c0-1.056,1.704-3.672,2.28-4.681c-0.576-0.36-1.08-0.792-1.08-1.536
		c0-1.392,2.832-2.04,3.84-2.352l3.816-5.041c-4.201,0.072-7.537,1.608-8.257,1.608c-0.144,0-0.384-0.024-0.384-0.24
		c0-0.576,1.392-2.424,1.776-2.952c0.432-0.6,1.152-0.792,1.824-0.984c2.088-0.6,4.296-0.84,6.457-0.84
		c5.953,0,7.609,1.92,7.609,4.896c0,5.112-6.217,8.713-13.897,7.849L296.13,152.077z M300.331,145.836
		c0.888,0,1.872-0.336,1.872,0.12c0,0.48-2.04,0.6-2.424,0.864l-0.528,0.792c0.888,0.24,1.704,0.288,2.472,0.24
		c4.705-0.264,7.801-3.696,7.537-5.208c-0.264-1.464-4.776-1.752-5.88-1.752c-0.024,0.648-0.168,0.96-0.528,1.464L300.331,145.836z"
		/>
	<path d="M316.602,151.309c-1.08,1.32-3.192,3.48-5.017,3.48c-1.416,0-2.064-1.632-2.064-2.856c0-2.928,3-5.785,4.44-5.785
		c0.408,0,1.056,0.144,1.056,0.672c0,1.2-2.376,3.336-3.384,4.033c-0.192,0.984,0.168,1.512,1.272,1.512
		c1.272,0,2.52-1.272,3.48-1.968L316.602,151.309z M314.298,144.636c0-0.984,1.152-1.848,2.088-1.848
		c0.432,0,0.792,0.312,0.792,0.744c0,0.96-0.888,2.136-1.92,2.136C314.682,145.668,314.298,145.212,314.298,144.636z"/>
	<path d="M319.146,149.917c-0.528,0.384-0.96,0.744-0.96,1.416c0,0.552,0.576,1.296,1.824,1.296c1.824,0,3.912-1.68,5.304-2.76
		l0.288,0.936c-1.464,1.561-4.152,3.937-6.433,3.937c-1.848,0-2.736-1.728-2.736-3.504c0-2.016,0.72-2.76,2.28-3.936
		c1.08-0.816,3.384-2.112,4.729-2.112c0.744,0,1.08,0.384,1.08,1.104c0,1.32-1.896,3.168-2.544,3.168
		c-0.552,0-0.792-0.6-0.816-1.056L319.146,149.917z"/>
	<path d="M334.915,150.829c-1.08,1.368-2.136,1.944-3.889,1.944c-1.008,1.032-2.184,1.8-3.696,1.8c-1.248,0-2.4-1.248-2.496-3.432
		c-0.048-1.8,0.84-3,2.184-4.033c1.296-1.056,3.024-1.704,4.489-1.776c0.528-0.024,1.32,0.216,1.32,0.864
		c0,0.36-0.288,0.504-0.552,0.648c0.72,0.192,0.864,0.696,0.864,1.416c0,1.056-0.48,1.896-0.936,2.832
		c1.056,0.192,1.728-0.72,2.472-1.272L334.915,150.829z M327.594,149.7c-0.528,0.528-0.984,1.464-0.984,2.208
		c0,0.696,0.456,0.912,1.056,0.912c0.792,0,1.296-0.456,1.848-0.96c-0.168-0.384-0.288-0.696-0.288-1.104
		c0-1.248,1.128-2.76,1.032-2.808C329.442,148.428,328.314,149.004,327.594,149.7z"/>
	<path d="M350.997,146.12c0,2.297-0.738,4.289-2.215,5.977c-1.305,1.508-3.137,2.301-5.496,2.379
		c-0.453,0.016-1.699,0.023-3.738,0.023c-0.383,0-0.959-0.012-1.729-0.035s-1.346-0.035-1.729-0.035c-0.227,0-0.34-0.09-0.34-0.27
		c0-0.859,0.033-2.15,0.1-3.873s0.1-3.014,0.1-3.873c0-0.898-0.033-2.244-0.1-4.037s-0.1-3.135-0.1-4.025
		c0-0.164,0.113-0.262,0.34-0.293c0.555-0.063,1.465-0.094,2.73-0.094c2.406,0,3.965,0.035,4.676,0.105
		c1.852,0.188,3.301,0.656,4.348,1.406c0.984,0.703,1.762,1.688,2.332,2.953C350.723,143.624,350.997,144.854,350.997,146.12z
		 M346.508,146.12c0-1.32-0.395-2.398-1.184-3.234c-0.797-0.867-1.852-1.301-3.164-1.301c-1.203,0-1.805,0.16-1.805,0.48
		c0,0.461-0.008,1.154-0.023,2.08s-0.023,1.619-0.023,2.08c0,0.453,0.008,1.135,0.023,2.045s0.023,1.596,0.023,2.057
		c0,0.336,0.625,0.504,1.875,0.504c1.352,0,2.414-0.449,3.188-1.348C346.145,148.632,346.508,147.511,346.508,146.12z"/>
	<path d="M360.5,147.128c0,0.305-0.168,0.457-0.504,0.457c-0.148,0-0.365-0.01-0.65-0.029s-0.498-0.029-0.639-0.029
		c-0.648,0-1.09,0.102-1.324,0.305s-0.352,0.613-0.352,1.23c0,0.336,0.006,0.846,0.018,1.529s0.018,1.193,0.018,1.529
		c0,0.227,0.016,0.564,0.047,1.014s0.047,0.783,0.047,1.002c0,0.188-0.129,0.293-0.387,0.316c-0.375,0.031-0.949,0.047-1.723,0.047
		c-0.742,0-1.336-0.023-1.781-0.07c-0.258-0.031-0.387-0.16-0.387-0.387c0-0.625,0.004-1.561,0.012-2.807s0.012-2.182,0.012-2.807
		c0-1.836-0.168-3.348-0.504-4.535c-0.016-0.07-0.023-0.129-0.023-0.176c0-0.117,0.059-0.195,0.176-0.234
		c0.43-0.047,1.059-0.133,1.887-0.258c1.234-0.242,1.871-0.363,1.91-0.363c0.141,0,0.23,0.246,0.27,0.738s0.109,0.738,0.211,0.738
		c-0.109,0,0.211-0.205,0.961-0.615s1.473-0.615,2.168-0.615c0.438,0,0.656,0.094,0.656,0.281c0,0.227-0.023,0.547-0.07,0.961
		c-0.047,0.445-0.074,0.766-0.082,0.961c0,0.227,0.004,0.527,0.012,0.902C360.493,146.675,360.5,146.979,360.5,147.128z"/>
	<path d="M366.208,149.05c0,0.57,0.012,1.42,0.035,2.549s0.035,1.975,0.035,2.537c0,0.164-0.098,0.262-0.293,0.293
		c-0.266,0.047-0.863,0.07-1.793,0.07c-0.938,0-1.539-0.023-1.805-0.07c-0.172-0.031-0.277-0.082-0.316-0.152
		c-0.016-0.031-0.023-0.148-0.023-0.352c0-0.539,0.012-1.35,0.035-2.432s0.035-1.896,0.035-2.443c0-2.219-0.086-3.984-0.258-5.297
		c-0.016-0.125-0.023-0.207-0.023-0.246c0-0.156,0.105-0.234,0.316-0.234c0.219,0,0.553,0.023,1.002,0.07s0.787,0.07,1.014,0.07
		s0.566-0.02,1.02-0.059s0.793-0.059,1.02-0.059c0.188,0,0.281,0.078,0.281,0.234c0,0.031-0.008,0.105-0.023,0.223
		C366.293,145.276,366.208,147.042,366.208,149.05z M366.512,140.343c0,1.359-0.766,2.039-2.297,2.039
		c-0.656,0-1.199-0.172-1.629-0.516c-0.469-0.375-0.703-0.883-0.703-1.523c0-0.609,0.242-1.109,0.727-1.5
		c0.445-0.359,0.98-0.539,1.605-0.539c0.609,0,1.137,0.184,1.582,0.551C366.274,139.245,366.512,139.741,366.512,140.343z"/>
	<path d="M379.743,146.296c0,1.336-0.043,2.125-0.129,2.367c-0.18,0.555-0.719,1.496-1.617,2.824
		c-0.781,1.141-1.449,2.031-2.004,2.672c-0.203,0.242-0.816,0.363-1.84,0.363c-0.891,0-1.469-0.031-1.734-0.094
		c-0.164-0.039-0.301-0.117-0.41-0.234c-0.469-0.508-1.137-1.391-2.004-2.648c-0.93-1.352-1.484-2.277-1.664-2.777
		c-0.195-0.539-0.293-1.348-0.293-2.426c0-0.305,0.004-0.764,0.012-1.377s0.012-1.076,0.012-1.389c0-0.203,0.137-0.305,0.41-0.305
		c0.398,0,0.998,0.012,1.799,0.035s1.4,0.035,1.799,0.035c0.18,0,0.27,0.121,0.27,0.363c0,0.219-0.016,0.549-0.047,0.99
		s-0.047,0.775-0.047,1.002c0,0.813,0.023,1.477,0.07,1.992c0.023,0.266,0.25,0.766,0.68,1.5c0.445,0.773,0.77,1.16,0.973,1.16
		c0.195,0,0.508-0.379,0.938-1.137c0.414-0.711,0.637-1.195,0.668-1.453c0.063-0.555,0.094-1.227,0.094-2.016
		c0-0.227-0.023-0.568-0.07-1.025s-0.07-0.795-0.07-1.014c0-0.242,0.082-0.363,0.246-0.363c0.188,0,0.467,0.004,0.838,0.012
		s0.65,0.012,0.838,0.012s0.471-0.016,0.85-0.047s0.662-0.047,0.85-0.047c0.195,0,0.324,0.102,0.387,0.305
		C379.676,144.022,379.743,144.929,379.743,146.296z"/>
	<path d="M392.071,148.065c0,0.789-0.254,1.238-0.762,1.348c-0.086,0.016-0.895,0.102-2.426,0.258
		c-0.922,0.102-2.297,0.223-4.125,0.363c0.109,0.508,0.441,0.895,0.996,1.16c0.453,0.219,0.969,0.328,1.547,0.328
		c0.695,0,1.395-0.188,2.098-0.563c0.297-0.188,0.594-0.375,0.891-0.563c0.164,0.078,0.439,0.477,0.826,1.195s0.58,1.176,0.58,1.371
		c0,0.055-0.059,0.145-0.176,0.27c-0.953,1.023-2.434,1.535-4.441,1.535c-1.859,0-3.359-0.543-4.5-1.629
		c-1.172-1.102-1.758-2.574-1.758-4.418c0-1.797,0.523-3.27,1.57-4.418c1.078-1.188,2.508-1.781,4.289-1.781
		c1.5,0,2.773,0.547,3.82,1.641S392.071,146.558,392.071,148.065z M387.969,147.351c0-0.484-0.172-0.91-0.516-1.277
		s-0.754-0.551-1.23-0.551c-0.492,0-0.898,0.207-1.219,0.621c-0.297,0.383-0.445,0.832-0.445,1.348c0,0.211,0.109,0.316,0.328,0.316
		c0.578,0,1.477-0.09,2.695-0.27C387.84,147.499,387.969,147.437,387.969,147.351z"/>
</g>
<g>
</g>
<g>
</g>
<g>
</g>
<g>
</g>
<g>
</g>
<g>
</g>
</svg>
